<svg xmlns="http://www.w3.org/2000/svg" viewBox="0 0 1200 760" role="img" aria-label="Line cook knife origin story">
  <rect width="1200" height="760" rx="42" fill="#0b0b09"/>
  <path d="M120 604h960" stroke="#f2eadf" stroke-opacity=".12" stroke-width="2"/>
  <rect x="160" y="330" width="560" height="218" rx="28" fill="#151511" stroke="#f2eadf" stroke-opacity=".13"/>
  <path d="M210 420h620c86 0 154 34 204 102L360 568c-102 7-169-34-202-122 14-17 31-25 52-26Z" fill="#eee7dc"/>
  <rect x="160" y="536" width="205" height="56" rx="28" fill="#26251f" stroke="#eee7dc" stroke-opacity=".25"/>
  <circle cx="220" cy="564" r="8" fill="#d53b2e"/><circle cx="286" cy="564" r="8" fill="#eee7dc" opacity=".68"/>
  <rect x="760" y="170" width="245" height="120" rx="20" fill="#171711" stroke="#eee7dc" stroke-opacity=".16"/>
  <path d="M795 230h176M795 260h120" stroke="#eee7dc" stroke-opacity=".38" stroke-width="10" stroke-linecap="round"/>
  <rect x="746" y="312" width="280" height="24" rx="12" fill="#d53b2e"/>
  <text x="104" y="162" fill="#eee7dc" font-family="Montserrat, Arial, sans-serif" font-size="56" font-weight="900" letter-spacing="-2">line cook → tojiro → japan</text>
  <text x="108" y="210" fill="#b8afa0" font-family="Montserrat, Arial, sans-serif" font-size="18" font-weight="800" letter-spacing="3">ADRICHOPS ORIGIN</text>
</svg>