<svg xmlns="http://www.w3.org/2000/svg" viewBox="0 0 1200 760" role="img" aria-label="Minimal maker spotlight illustration for Baba Hamono / Kagekiyo">
  <rect width="1200" height="760" rx="42" fill="#0b0b09"/>
  <path d="M80 612h1040M140 150h920M140 250h920" stroke="#f2eadf" stroke-opacity=".08" stroke-width="2"/>
  <path d="M180 190h610c85 0 154 42 206 125L318 378c-112 10-181-36-206-139 20-29 43-45 68-49Z" fill="#ede7dc" opacity=".92"/>
  <path d="M790 190c84 0 153 41 206 124" fill="none" stroke="#d53b2e" stroke-width="8" stroke-linecap="round"/>
  <rect x="134" y="354" width="220" height="70" rx="34" fill="#24231e" stroke="#ede7dc" stroke-opacity=".28"/>
  <circle cx="194" cy="389" r="9" fill="#d53b2e"/><circle cx="262" cy="389" r="9" fill="#ede7dc" opacity=".7"/>
  <path d="M750 480l125 72M866 452l-64 112" stroke="#ede7dc" stroke-opacity=".7" stroke-width="18" stroke-linecap="round"/>
  <text x="86" y="678" fill="#ede7dc" font-family="Montserrat, Arial, sans-serif" font-size="42" font-weight="900" letter-spacing="-1">Baba Hamono</text>
  <text x="88" y="716" fill="#b8afa0" font-family="Montserrat, Arial, sans-serif" font-size="18" font-weight="800" letter-spacing="3">EXPANDED MAKER SPOTLIGHT</text>
</svg>