<svg xmlns="http://www.w3.org/2000/svg" viewBox="0 0 1600 1100" role="img">
  <rect width="1600" height="1100" fill="#090908"/>
  <path d="M0 220H1600M0 440H1600M0 660H1600M0 880H1600M320 0V1100M640 0V1100M960 0V1100M1280 0V1100" stroke="#2a2924" stroke-width="1" opacity=".28"/>
  <rect x="86" y="82" width="1428" height="936" rx="74" fill="none" stroke="#2a2924" stroke-width="2" opacity=".85"/>
  <circle cx="1420" cy="170" r="18" fill="#ff4d35"/>
  <g transform="rotate(-8 800 560)">
    <path d="M230 470 H1030 C1086 470 1134 502 1152 550 L1118 690 H230 Z" fill="#e4e7e5"/>
    <path d="M230 690 H1118" stroke="#aab2ae" stroke-width="10"/>
    <path d="M1048 512 L1375 472 C1422 467 1462 500 1468 546 C1474 593 1440 632 1392 634 L1042 628 Z" fill="#1e1d19" stroke="#f7efe4" stroke-width="3"/>
    <circle cx="1265" cy="552" r="14" fill="#ff4d35"/>
  </g>
</svg>