<svg xmlns="http://www.w3.org/2000/svg" viewBox="0 0 1600 1100" role="img">
  <rect width="1600" height="1100" fill="#090908"/>
  <path d="M0 220H1600M0 440H1600M0 660H1600M0 880H1600M320 0V1100M640 0V1100M960 0V1100M1280 0V1100" stroke="#2a2924" stroke-width="1" opacity=".28"/>
  <rect x="86" y="82" width="1428" height="936" rx="74" fill="none" stroke="#2a2924" stroke-width="2" opacity=".85"/>
  <circle cx="1420" cy="170" r="18" fill="#ff4d35"/>
  <g transform="rotate(-12 800 545) scale(1) translate(0 0)">
    <path d="M390 590 L960 470 C1018 457 1072 473 1116 516 L1032 590 L390 640 Z" fill="#e4e7e5"/>
    <path d="M330 626 L1020 440" stroke="#ffffff" stroke-width="4" opacity=".38"/>
    <path d="M260 675 C520 680 835 640 1088 520" fill="none" stroke="#aab2ae" stroke-width="10" opacity=".8"/>
    <path d="M1038 512 L1255 460 C1298 451 1335 479 1340 523 C1345 568 1315 604 1272 610 L1034 592 Z" fill="#1e1d19" stroke="#f7efe4" stroke-width="3"/>
    <circle cx="1250" cy="500" r="15" fill="#ff4d35"/>
  </g>
</svg>