<svg xmlns="http://www.w3.org/2000/svg" viewBox="0 0 1600 1100" role="img">
  <rect width="1600" height="1100" fill="#090908"/>
  <path d="M0 220H1600M0 440H1600M0 660H1600M0 880H1600M320 0V1100M640 0V1100M960 0V1100M1280 0V1100" stroke="#2a2924" stroke-width="1" opacity=".28"/>
  <rect x="86" y="82" width="1428" height="936" rx="74" fill="none" stroke="#2a2924" stroke-width="2" opacity=".85"/>
  <circle cx="1420" cy="170" r="18" fill="#ff4d35"/>
  <g><rect x="330" y="345" width="860" height="480" rx="58" fill="#b89155" opacity=".75"/><path d="M430 520 H1090" stroke="#f7efe4" stroke-width="10" opacity=".22"/><path d="M460 610 H1070" stroke="#f7efe4" stroke-width="10" opacity=".18"/><g transform="rotate(-16 800 560) scale(0.58) translate(336.00000000000006 231.00000000000003)">
    <path d="M230 612 L1038 376 C1128 350 1218 386 1278 472 C1146 594 948 679 700 704 L230 688 Z" fill="#e4e7e5"/>
    <path d="M330 626 L1020 440" stroke="#ffffff" stroke-width="4" opacity=".38"/>
    <path d="M260 675 C520 680 835 640 1088 520" fill="none" stroke="#aab2ae" stroke-width="10" opacity=".8"/>
    <path d="M1152 444 L1402 395 C1452 386 1496 418 1504 466 C1512 516 1477 560 1426 566 L1142 548 Z" fill="#1e1d19" stroke="#f7efe4" stroke-width="3"/>
    <circle cx="1250" cy="500" r="15" fill="#ff4d35"/>
  </g></g>
</svg>