<svg xmlns="http://www.w3.org/2000/svg" viewBox="0 0 1600 1100" role="img">
  <rect width="1600" height="1100" fill="#090908"/>
  <path d="M0 220H1600M0 440H1600M0 660H1600M0 880H1600M320 0V1100M640 0V1100M960 0V1100M1280 0V1100" stroke="#2a2924" stroke-width="1" opacity=".28"/>
  <rect x="86" y="82" width="1428" height="936" rx="74" fill="none" stroke="#2a2924" stroke-width="2" opacity=".85"/>
  <circle cx="1420" cy="170" r="18" fill="#ff4d35"/>
  <g><rect x="330" y="475" width="720" height="190" rx="42" fill="#7a5037"/><path d="M390 570H990" stroke="#a77755" stroke-width="6" opacity=".55"/><path d="M1040 520 L1300 500 C1340 497 1372 526 1372 565 C1372 604 1340 633 1300 630 L1040 612 Z" fill="#1e1d19"/></g>
</svg>